Simulation
nRows=32
nColumns=15
endheader
time  TH_x TH_y TH_z SC_y  SC_z  SC_x  AC_y  AC_z  AC_x  GH_y  GH_z  GH_yy  EL_x  PS_y
2.8725  0.000000  0.000000  0.000000  -33.48368327049938  -1.4676073170264885  0.8082405932081458  45.717350205738306  -7.574629155137761  -1.3760140759677655  0.8700684019671567  20.684203785283184  1.914097702665689  14.102418037784526  120.000000
2.92995  0.000000  0.000000  0.000000  -34.55234332540801  -0.07938166613350962  -0.2744709527041685  44.45802456212241  -4.608011390744829  -1.5615151503315583  10.917767423198574  16.036590209931493  -2.948366308807735  14.443085667064437  120.000000
2.9874  0.000000  0.000000  0.000000  -35.889735063988915  0.9930876521047848  -1.158667637192269  43.46914384682187  -2.0321690636532437  -1.5259517016171813  23.992821865361222  12.562463780020154  -11.3173228350535  14.86938906810126  120.000000
3.0448500000000003  0.000000  0.000000  0.000000  -37.39503276525118  1.7725117872931033  -1.735666840535197  42.77005370978616  0.09859617643462278  -1.4082173629022792  39.93962318948825  10.303545702530966  -23.19881934868695  15.340808077109463  120.000000
3.1023  0.000000  0.000000  0.000000  -38.97118972428129  2.3406029070133476  -2.004637556774321  42.34780395647571  1.7998009729469753  -1.2844705779194903  57.03411168272907  9.1454448662928  -36.93016567732991  15.818710149594539  120.000000
3.15975  0.000000  0.000000  0.000000  -40.5305852537943  2.764047073891047  -2.01505178066958  42.15921316853831  3.124823052138323  -1.1920191840016314  72.52193471944078  8.800245818402363  -49.73860924114603  16.27458892468562  120.000000
3.2172  0.000000  0.000000  0.000000  -41.99205982550449  3.0824470733413363  -1.8388185982124885  42.14000616723148  4.14384476099199  -1.1333280590370838  84.67459892545179  8.902880804998675  -59.818094987376234  16.69379287098961  120.000000
3.2746500000000003  0.000000  0.000000  0.000000  -43.28452561239578  3.3213368417899067  -1.5395488001706013  42.21913417273044  4.916838005798586  -1.1125815595312283  93.42922788728357  9.16604902709521  -66.99459990875174  17.078209591400594  120.000000
3.3321  0.000000  0.000000  0.000000  -44.34973457991509  3.4996043643794854  -1.171348220054512  42.33158788592692  5.491795180939785  -1.145422960983999  99.4483778517467  9.428234101612093  -71.811064183062  17.43851319433243  120.000000
3.38955  0.000000  0.000000  0.000000  -45.152517826984415  3.6286782365480703  -0.7765785061818452  42.42424352374889  5.898114877916636  -1.2505316004457139  103.37855950177446  9.625732989981945  -74.81165545682022  17.78530268153682  120.000000
3.447  0.000000  0.000000  0.000000  -45.68079664230649  3.719921712999783  -0.39005998184333285  42.46056444302397  6.143834032997062  -1.4325251274789452  105.65510223832672  9.75462722178686  -76.36182271105928  18.126568821633867  120.000000
3.5044500000000003  0.000000  0.000000  0.000000  -45.93632756020431  3.7828553556941102  -0.04710988340965418  42.43112302007951  6.230240655593895  -1.6832383394292336  106.51563083196726  9.840739340921552  -76.66441654960887  18.467501765210958  120.000000
3.5619  0.000000  0.000000  0.000000  -45.92580050559104  3.8180112460292053  0.21761649478009035  42.3385413094716  6.163189170519443  -1.9821992633081704  106.12160960539164  9.916062042108429  -75.87787974533632  18.811801200631756  120.000000
3.61935  0.000000  0.000000  0.000000  -45.6540302903306  3.8190804702154626  0.37294664989179915  42.19288712491853  5.954119742633984  -2.2904919296579798  104.64004282581992  10.001523658990903  -74.18847519536648  19.16282750228402  120.000000
3.6768  0.000000  0.000000  0.000000  -45.12305391501565  3.775205924652621  0.39969515456253757  42.01891700309953  5.616379687432288  -2.5585602300963837  102.23691832448019  10.096559482442254  -71.79679869342984  19.52379579188095  120.000000
3.7342500000000003  0.000000  0.000000  0.000000  -44.34212315858925  3.6785339219452196  0.3033192043644031  41.861404601090285  5.15251295122291  -2.7337530847764335  99.01075974613325  10.17389058892566  -68.84295834072763  19.89707422768271  120.000000
3.7917  0.000000  0.000000  0.000000  -43.33357578701479  3.524443467006007  0.10828129141120399  41.794517619872835  4.5574552966969195  -2.7702683681261084  94.87863431926871  10.192563032284896  -65.28416975428259  20.281433015659076  120.000000
3.84915  0.000000  0.000000  0.000000  -42.14180772118374  3.3099386380895206  -0.16589444885755286  41.9046630480494  3.8342226642541917  -2.6191276071556713  89.5228540853397  10.121793299601547  -60.8260024919993  20.672918764404738  120.000000
3.9066  0.000000  0.000000  0.000000  -40.83184361633283  3.028488798717952  -0.5062975847474409  42.257477743925385  2.9953324727436055  -2.2291062054599444  82.38831389948936  9.961805773129676  -54.901352990678284  21.06673658241789  120.000000
3.9640500000000003  0.000000  0.000000  0.000000  -39.478379848998145  2.677401715340545  -0.9023889406691953  42.89597383123058  2.052418859837612  -1.5612208555261933  72.71274778660656  9.786083771264924  -46.69598958068814  21.461698312000276  120.000000
4.0215  0.000000  0.000000  0.000000  -38.149678184384896  2.245516779245002  -1.348039311726443  43.85823053985065  1.0101582616226281  -0.6038157790279112  59.79277669191747  9.806741716587416  -35.42748472490822  21.858714212916794  120.000000
4.07895  0.000000  0.000000  0.000000  -36.92544921933726  1.6846574340030152  -1.8476265684504567  45.14045377704529  -0.13874309365274948  0.662112097406976  43.91251695976551  10.399789177504587  -21.294575250478633  22.2498658713877  120.000000
4.1364  0.000000  0.000000  0.000000  -35.88073669125694  0.9540342796688068  -2.4268242907115063  46.70348966655586  -1.4343771917170285  2.2802646241836015  27.367555539489373  12.006851684175572  -6.509258845380219  22.62233388228499  120.000000
4.19385  0.000000  0.000000  0.000000  -35.04308345604771  0.02782935774436901  -3.1345830791193268  48.526781656742855  -2.9157865293824687  4.249669739252498  13.118494841121127  14.893766760096872  6.036664876526614  22.94619169951703  120.000000
4.2513000000000005  0.000000  0.000000  0.000000  -34.39813060026096  -1.0958320913860096  -4.0223984863520235  50.54172363330734  -4.58064223936741  6.544484554908958  2.38448166161127  18.998815214404  15.174216091969344  23.174538913227238  120.000000
4.30875  0.000000  0.000000  0.000000  -33.96994165216679  -2.3830821590803613  -5.100427959263076  52.636287926759145  -6.378917352602286  9.142206402605611  -5.150055337369948  24.021218402845857  21.248940365386133  23.29297888540877  120.000000
4.3662  0.000000  0.000000  0.000000  -33.78978262624991  -3.7775188834553814  -6.3499573950124315  54.71998770174456  -8.144380671187333  11.984746003589986  -10.18548140995639  29.51608404452024  24.97808280475604  23.314218059152772  120.000000
4.42365  0.000000  0.000000  0.000000  -33.824588543508206  -5.12789553653474  -7.691559600301247  56.72490981449538  -9.622553250965836  14.94767211945309  -13.370705957485253  34.95490424733347  27.00606131738357  23.28607323601919  120.000000
4.4811  0.000000  0.000000  0.000000  -34.01830766993137  -6.224393881081451  -8.954905118558992  58.622102310631035  -10.55921576590234  17.81690232342043  -15.189419980644992  39.87571225103111  27.767802974436822  23.280095440211735  120.000000
4.53855  0.000000  0.000000  0.000000  -34.36349916796318  -6.894325002222632  -9.940883807271504  60.43488010661022  -10.776597816792282  20.344635216786205  -15.96246914579405  44.01930554832887  27.503069877648244  23.339250200882592  120.000000
4.596  0.000000  0.000000  0.000000  -34.953440593759304  -6.961133755941142  -10.469323898237713  62.22161264421522  -10.274389307673216  22.41073509051336  -15.932479445950088  47.319118743580624  26.36595725881748  23.486756099884598  120.000000
4.65345  0.000000  0.000000  0.000000  -35.8843668722163  -6.263975132502993  -10.384955570120843  64.03775802603853  -9.25819714611176  24.0774008322544  -15.298696285274575  49.84081112597554  24.487629637479348  23.72340639411898  120.000000
